<svg version="1" xmlns="http://www.w3.org/2000/svg" width="682.667" height="682.667" viewBox="0 0 512.000000 512.000000"><path d="M178.5 119.4c-42.4 24.4-77.6 44.9-78.2 45.6-1 .8-1.3 20.3-1.3 90.8 0 49.3.4 90.2.8 90.8 1.3 1.9 154.7 89.9 156.7 89.9s155.4-88 156.7-89.9c1-1.4 1-179.8 0-181.2-.9-1.3-153.6-89.4-156-90-1-.3-33.2 17.7-78.7 44zM322 147.8l60.5 35v146.4l-60.5 35c-33.3 19.2-61.7 35.6-63.1 36.3-2.5 1.3-5 0-65.5-34.9l-62.9-36.4V182.8l62.9-36.4c60.5-34.9 63-36.2 65.5-34.9 1.4.7 29.8 17.1 63.1 36.3z"/><path d="M208.8 174.3L162 201.4v109.2l46.7 27c25.7 14.8 47.2 26.9 47.8 26.9.6 0 22.1-12.1 47.8-26.9l46.7-27V201.4l-46.6-27c-25.7-14.8-47.2-27-47.8-27.1-.6-.1-22.1 12.1-47.8 27zm79.7 26.6l31 17.9v74.4l-31 17.9c-17 9.8-31.4 17.9-32 17.9-.5 0-14.9-8.1-32-17.9l-31-17.9v-74.4l31-17.9c17.1-9.8 31.5-17.9 32-17.9.6 0 15 8.1 32 17.9z"/></svg>